<svg xmlns="http://www.w3.org/2000/svg" width="2000" height="2000" viewBox="0 0 2000 2000">
<defs>

        <radialGradient id="glow" cx="50%" cy="50%" r="50%">
          <stop offset="0%" stop-color="#00a0e6" stop-opacity="0.35"/>
          <stop offset="60%" stop-color="#00a0e6" stop-opacity="0.15"/>
          <stop offset="100%" stop-color="#000000" stop-opacity="0"/>
        </radialGradient>
</defs>
<rect width="100%" height="100%" fill="none"/>
<circle cx="1000.0" cy="1000.0" r="432.0" fill="url(#glow)" />
<path d="M 1000.000 250.000 A 750.000 750.000 0 0 1 1270.931 300.646 L 1173.396 552.413 A 480.000 480.000 0 0 0 1000.000 520.000 Z" fill="#e5243b" stroke="#ffffff" stroke-width="6"/>
<text x="1138.73" y="257.86" font-family="Arial,Helvetica,sans-serif" font-weight="700" font-size="48" fill="#ffffff" text-anchor="middle" dominant-baseline="central">1</text>
<g transform="translate(1101.9809823881965,454.44992967543453)" fill="#fff"><circle cx="-20" cy="-10" r="14.399999999999999"/><circle cx="0" cy="-12" r="16.8"/><circle cx="20" cy="-10" r="14.399999999999999"/><rect x="-30" y="0" width="20" height="30.0" rx="3"/><rect x="-10" y="0" width="20" height="30.0" rx="3"/><rect x="10" y="0" width="20" height="30.0" rx="3"/></g>
<path d="M 1270.931 300.646 A 750.000 750.000 0 0 1 1505.272 445.743 L 1323.374 645.276 A 480.000 480.000 0 0 0 1173.396 552.413 Z" fill="#dda63a" stroke="#ffffff" stroke-width="6"/>
<text x="1397.46" y="358.09" font-family="Arial,Helvetica,sans-serif" font-weight="700" font-size="48" fill="#ffffff" text-anchor="middle" dominant-baseline="central">2</text>
<g transform="translate(1292.1698503969326,528.1294896700642)" fill="none" stroke="#fff" stroke-width="9.6" stroke-linecap="round"><path d="M-60.0 18.0 Q 0 72.0 60.0 18.0" stroke="#fff"/><path d="M-36.0 36.0 L 36.0 36.0" stroke="#fff"/><path d="M-6.0 -30.0 q0 -18.0 9.6 -18.0" /></g>
<path d="M 1505.272 445.743 A 750.000 750.000 0 0 1 1671.372 665.696 L 1429.678 786.046 A 480.000 480.000 0 0 0 1323.374 645.276 Z" fill="#4c9f38" stroke="#ffffff" stroke-width="6"/>
<text x="1602.50" y="545.01" font-family="Arial,Helvetica,sans-serif" font-weight="700" font-size="48" fill="#ffffff" text-anchor="middle" dominant-baseline="central">3</text>
<g transform="translate(1442.899561140533,665.5377768095127)" fill="none" stroke="#fff" stroke-width="10.799999999999999" stroke-linecap="round" stroke-linejoin="round"><polyline points="-54.0,0 -30.0,0 -18.0,-21.599999999999998 0,30.0 18.0,-30.0 42.0,0 54.0,0"/></g>
<path d="M 1671.372 665.696 A 750.000 750.000 0 0 1 1746.801 930.799 L 1477.952 955.711 A 480.000 480.000 0 0 0 1429.678 786.046 Z" fill="#c5192d" stroke="#ffffff" stroke-width="6"/>
<text x="1726.18" y="793.38" font-family="Arial,Helvetica,sans-serif" font-weight="700" font-size="48" fill="#ffffff" text-anchor="middle" dominant-baseline="central">4</text>
<g transform="translate(1533.8132319609144,848.117040509994)" fill="#fff"><path d="M-54.0 -30.0 h 48.0 v 72.0 h -48.0 z"/><path d="M0 -30.0 h 48.0 v 72.0 h -48.0 z" opacity="0.95"/><line x1="0" y1="-"+str(s*0.25) x2="0" y2="42.0" stroke="#fff" stroke-width="3.5999999999999996"/></g>
<path d="M 1746.801 930.799 A 750.000 750.000 0 0 1 1721.369 1205.247 L 1461.676 1131.358 A 480.000 480.000 0 0 0 1477.952 955.711 Z" fill="#ff3a21" stroke="#ffffff" stroke-width="6"/>
<text x="1751.78" y="1069.66" font-family="Arial,Helvetica,sans-serif" font-weight="700" font-size="48" fill="#ffffff" text-anchor="middle" dominant-baseline="central">5</text>
<g transform="translate(1552.632467843744,1051.2089395021326)" fill="none" stroke="#fff" stroke-width="10.799999999999999" stroke-linecap="round"><circle cx="0" cy="0" r="33.6" /><line x1="0" y1="33.6" x2="0" y2="60.0" /><line x1="-21.599999999999998" y1="60.0" x2="21.599999999999998" y2="60.0" /></g>
<path d="M 1721.369 1205.247 A 750.000 750.000 0 0 1 1598.513 1451.976 L 1383.048 1289.265 A 480.000 480.000 0 0 0 1461.676 1131.358 Z" fill="#26bde2" stroke="#ffffff" stroke-width="6"/>
<text x="1675.85" y="1336.53" font-family="Arial,Helvetica,sans-serif" font-weight="700" font-size="48" fill="#ffffff" text-anchor="middle" dominant-baseline="central">6</text>
<g transform="translate(1496.8156267020595,1247.3847874559788)" fill="#fff"><path d="M0 -39.6 C 36.0 -24.0 30.0 30.0 0 54.0 C -30.0 30.0 -36.0 -24.0 0 -39.6 Z"/></g>
<path d="M 1598.513 1451.976 A 750.000 750.000 0 0 1 1394.824 1637.663 L 1252.687 1408.104 A 480.000 480.000 0 0 0 1383.048 1289.265 Z" fill="#fcc30b" stroke="#ffffff" stroke-width="6"/>
<text x="1508.64" y="1557.95" font-family="Arial,Helvetica,sans-serif" font-weight="700" font-size="48" fill="#ffffff" text-anchor="middle" dominant-baseline="central">7</text>
<g transform="translate(1373.9010822238392,1410.1499490574658)" stroke="#fff" stroke-width="7.199999999999999" fill="none"><line x1="0" y1="-50.4" x2="0" y2="-72.0" transform="rotate(0)"/><line x1="0" y1="-50.4" x2="0" y2="-72.0" transform="rotate(30)"/><line x1="0" y1="-50.4" x2="0" y2="-72.0" transform="rotate(60)"/><line x1="0" y1="-50.4" x2="0" y2="-72.0" transform="rotate(90)"/><line x1="0" y1="-50.4" x2="0" y2="-72.0" transform="rotate(120)"/><line x1="0" y1="-50.4" x2="0" y2="-72.0" transform="rotate(150)"/><line x1="0" y1="-50.4" x2="0" y2="-72.0" transform="rotate(180)"/><line x1="0" y1="-50.4" x2="0" y2="-72.0" transform="rotate(210)"/><line x1="0" y1="-50.4" x2="0" y2="-72.0" transform="rotate(240)"/><line x1="0" y1="-50.4" x2="0" y2="-72.0" transform="rotate(270)"/><line x1="0" y1="-50.4" x2="0" y2="-72.0" transform="rotate(300)"/><line x1="0" y1="-50.4" x2="0" y2="-72.0" transform="rotate(330)"/><circle cx="0" cy="0" r="24.0" fill="#fff" stroke="none"/></g>
<path d="M 1394.824 1637.663 A 750.000 750.000 0 0 1 1137.812 1737.230 L 1088.200 1471.827 A 480.000 480.000 0 0 0 1252.687 1408.104 Z" fill="#a21942" stroke="#ffffff" stroke-width="6"/>
<text x="1272.74" y="1704.02" font-family="Arial,Helvetica,sans-serif" font-weight="700" font-size="48" fill="#ffffff" text-anchor="middle" dominant-baseline="central">8</text>
<g transform="translate(1200.4891247338699,1517.5220873194176)" fill="#fff"><rect x="-54.0" y="18.0" width="14.399999999999999" height="48.0" rx="2"/><rect x="-26.4" y="6.0" width="14.399999999999999" height="60.0" rx="2"/><rect x="6.0" y="-6.0" width="14.399999999999999" height="72.0" rx="2"/></g>
<path d="M 1137.812 1737.230 A 750.000 750.000 0 0 1 862.188 1737.230 L 911.800 1471.827 A 480.000 480.000 0 0 0 1088.200 1471.827 Z" fill="#fd6925" stroke="#ffffff" stroke-width="6"/>
<text x="1000.00" y="1755.00" font-family="Arial,Helvetica,sans-serif" font-weight="700" font-size="48" fill="#ffffff" text-anchor="middle" dominant-baseline="central">9</text>
<g transform="translate(1000.0,1555.0)" fill="none" stroke="#fff" stroke-width="7.199999999999999"><rect x="-30.0" y="-30.0" width="26.4" height="26.4"/><rect x="6.0" y="-30.0" width="26.4" height="26.4"/><rect x="-12.0" y="6.0" width="26.4" height="26.4"/></g>
<path d="M 862.188 1737.230 A 750.000 750.000 0 0 1 605.176 1637.663 L 747.313 1408.104 A 480.000 480.000 0 0 0 911.800 1471.827 Z" fill="#dd1367" stroke="#ffffff" stroke-width="6"/>
<text x="727.26" y="1704.02" font-family="Arial,Helvetica,sans-serif" font-weight="700" font-size="48" fill="#ffffff" text-anchor="middle" dominant-baseline="central">10</text>
<g transform="translate(799.5108752661303,1517.5220873194176)" fill="none" stroke="#fff" stroke-width="7.199999999999999"><circle cx="0" cy="0" r="38.4"/><line x1="-26.4" y1="-9.6" x2="26.4" y2="-9.6" /><line x1="-26.4" y1="16.8" x2="26.4" y2="16.8" /></g>
<path d="M 605.176 1637.663 A 750.000 750.000 0 0 1 401.487 1451.976 L 616.952 1289.265 A 480.000 480.000 0 0 0 747.313 1408.104 Z" fill="#fd9d24" stroke="#ffffff" stroke-width="6"/>
<text x="491.36" y="1557.95" font-family="Arial,Helvetica,sans-serif" font-weight="700" font-size="48" fill="#ffffff" text-anchor="middle" dominant-baseline="central">11</text>
<g transform="translate(626.0989177761608,1410.1499490574658)" fill="#fff"><rect x="-54.0" y="-6.0" width="21.599999999999998" height="48.0"/><rect x="-21.599999999999998" y="-21.599999999999998" width="14.399999999999999" height="54.0"/><rect x="6.0" y="-9.6" width="26.4" height="45.6"/></g>
<path d="M 401.487 1451.976 A 750.000 750.000 0 0 1 278.631 1205.247 L 538.324 1131.358 A 480.000 480.000 0 0 0 616.952 1289.265 Z" fill="#bf8b2e" stroke="#ffffff" stroke-width="6"/>
<text x="324.15" y="1336.53" font-family="Arial,Helvetica,sans-serif" font-weight="700" font-size="48" fill="#ffffff" text-anchor="middle" dominant-baseline="central">12</text>
<g transform="translate(503.18437329794045,1247.3847874559788)" fill="#fff"><path d="M -30.0 -6.0 L -6.0 -30.0 L 30.0 -6.0"/><path d="M 6.0 30.0 L -30.0 6.0 L -6.0 -30.0"/></g>
<path d="M 278.631 1205.247 A 750.000 750.000 0 0 1 253.199 930.799 L 522.048 955.711 A 480.000 480.000 0 0 0 538.324 1131.358 Z" fill="#3f7e44" stroke="#ffffff" stroke-width="6"/>
<text x="248.22" y="1069.66" font-family="Arial,Helvetica,sans-serif" font-weight="700" font-size="48" fill="#ffffff" text-anchor="middle" dominant-baseline="central">13</text>
<g transform="translate(447.36753215625583,1051.2089395021328)" fill="none" stroke="#fff" stroke-width="7.199999999999999"><path d="M0 -42.0 C 21.599999999999998 -21.599999999999998 21.599999999999998 18.0 0 36.0"/><polyline points="-6.0,-12.0 14.399999999999999,-36.0 26.4,-24.0"/></g>
<path d="M 253.199 930.799 A 750.000 750.000 0 0 1 328.628 665.696 L 570.322 786.046 A 480.000 480.000 0 0 0 522.048 955.711 Z" fill="#0a97d9" stroke="#ffffff" stroke-width="6"/>
<text x="273.82" y="793.38" font-family="Arial,Helvetica,sans-serif" font-weight="700" font-size="48" fill="#ffffff" text-anchor="middle" dominant-baseline="central">14</text>
<g transform="translate(466.18676803908534,848.1170405099942)" fill="#fff"><ellipse cx="-6.0" cy="0" rx="33.6" ry="16.8"/><polygon points="27.6,0 42.0,-9.6 42.0,9.6"/></g>
<path d="M 328.628 665.696 A 750.000 750.000 0 0 1 494.728 445.743 L 676.626 645.276 A 480.000 480.000 0 0 0 570.322 786.046 Z" fill="#56c02b" stroke="#ffffff" stroke-width="6"/>
<text x="397.50" y="545.01" font-family="Arial,Helvetica,sans-serif" font-weight="700" font-size="48" fill="#ffffff" text-anchor="middle" dominant-baseline="central">15</text>
<g transform="translate(557.1004388594672,665.5377768095126)" fill="#fff"><rect x="-6.0" y="18.0" width="12.0" height="30.0"/><circle cx="0" cy="-6.0" r="26.4"/></g>
<path d="M 494.728 445.743 A 750.000 750.000 0 0 1 729.069 300.646 L 826.604 552.413 A 480.000 480.000 0 0 0 676.626 645.276 Z" fill="#00689d" stroke="#ffffff" stroke-width="6"/>
<text x="602.54" y="358.09" font-family="Arial,Helvetica,sans-serif" font-weight="700" font-size="48" fill="#ffffff" text-anchor="middle" dominant-baseline="central">16</text>
<g transform="translate(707.8301496030673,528.1294896700642)" fill="none" stroke="#fff" stroke-width="7.199999999999999"><path d="M -33.6,-2.4 q 33.6,-26.4 67.2,0"/><rect x="-2.4" y="21.599999999999998" width="30.0" height="7.199999999999999" rx="2" fill="#fff"/></g>
<path d="M 729.069 300.646 A 750.000 750.000 0 0 1 1000.000 250.000 L 1000.000 520.000 A 480.000 480.000 0 0 0 826.604 552.413 Z" fill="#19486a" stroke="#ffffff" stroke-width="6"/>
<text x="861.27" y="257.86" font-family="Arial,Helvetica,sans-serif" font-weight="700" font-size="48" fill="#ffffff" text-anchor="middle" dominant-baseline="central">17</text>
<g transform="translate(898.0190176118036,454.4499296754344)" fill="none" stroke="#fff" stroke-width="7.199999999999999"><circle cx="-16.8" cy="0" r="26.4"/><circle cx="16.8" cy="0" r="26.4"/></g>
<circle cx="1000.0" cy="1000.0" r="288.0" fill="#0a7fb0" opacity="0.2" />
<g fill="#0a7fb0" font-family="Arial,Helvetica,sans-serif" font-weight="700" text-anchor="middle">
<text x="1000.0" y="980.0" font-size="48">SUSTAINABLE</text>
<text x="1000.0" y="1040.0" font-size="48">DEVELOPMENT GOALS</text>
</g>
</svg>